<mxfile host="app.diagrams.net" agent="Mozilla/5.0 (Windows NT 10.0; Win64; x64) AppleWebKit/537.36 (KHTML, like Gecko) Chrome/134.0.0.0 Safari/537.36" version="26.2.6">
  <diagram name="Страница — 1" id="Ls_ZHwPBuYlXQGbA9NZw">
    <mxGraphModel dx="889" dy="1639" grid="1" gridSize="10" guides="1" tooltips="1" connect="1" arrows="1" fold="1" page="1" pageScale="1" pageWidth="827" pageHeight="1169" math="0" shadow="0">
      <root>
        <mxCell id="0" />
        <mxCell id="1" parent="0" />
        <mxCell id="Zmg1EnVHZOjhAk8_jbp6-8" style="edgeStyle=orthogonalEdgeStyle;rounded=0;orthogonalLoop=1;jettySize=auto;html=1;entryX=0;entryY=0.5;entryDx=0;entryDy=0;" parent="1" source="Zmg1EnVHZOjhAk8_jbp6-1" target="Zmg1EnVHZOjhAk8_jbp6-6" edge="1">
          <mxGeometry relative="1" as="geometry">
            <Array as="points">
              <mxPoint x="200" y="190" />
              <mxPoint x="200" y="140" />
            </Array>
          </mxGeometry>
        </mxCell>
        <mxCell id="Zmg1EnVHZOjhAk8_jbp6-1" value="Клиент" style="shape=umlActor;verticalLabelPosition=bottom;verticalAlign=top;html=1;outlineConnect=0;" parent="1" vertex="1">
          <mxGeometry x="60" y="160" width="30" height="60" as="geometry" />
        </mxCell>
        <mxCell id="Zmg1EnVHZOjhAk8_jbp6-6" value="Отделение (фронт-офис)" style="rounded=1;whiteSpace=wrap;html=1;" parent="1" vertex="1">
          <mxGeometry x="230" y="110" width="90" height="60" as="geometry" />
        </mxCell>
        <mxCell id="Zmg1EnVHZOjhAk8_jbp6-22" style="edgeStyle=orthogonalEdgeStyle;rounded=0;orthogonalLoop=1;jettySize=auto;html=1;entryX=1;entryY=0.5;entryDx=0;entryDy=0;" parent="1" source="Zmg1EnVHZOjhAk8_jbp6-7" target="Zmg1EnVHZOjhAk8_jbp6-21" edge="1">
          <mxGeometry relative="1" as="geometry">
            <Array as="points">
              <mxPoint x="570" y="340" />
              <mxPoint x="440" y="340" />
              <mxPoint x="440" y="400" />
            </Array>
          </mxGeometry>
        </mxCell>
        <mxCell id="Zmg1EnVHZOjhAk8_jbp6-7" value="Автоматическая банковская система (АБС)" style="rounded=0;whiteSpace=wrap;html=1;" parent="1" vertex="1">
          <mxGeometry x="530" y="200" width="170" height="90" as="geometry" />
        </mxCell>
        <mxCell id="Zmg1EnVHZOjhAk8_jbp6-13" style="edgeStyle=orthogonalEdgeStyle;rounded=0;orthogonalLoop=1;jettySize=auto;html=1;entryX=0;entryY=0.5;entryDx=0;entryDy=0;" parent="1" source="Zmg1EnVHZOjhAk8_jbp6-10" target="Zmg1EnVHZOjhAk8_jbp6-12" edge="1">
          <mxGeometry relative="1" as="geometry" />
        </mxCell>
        <mxCell id="Zmg1EnVHZOjhAk8_jbp6-10" value="Колл-центр" style="rounded=1;whiteSpace=wrap;html=1;" parent="1" vertex="1">
          <mxGeometry x="230" y="230" width="90" height="60" as="geometry" />
        </mxCell>
        <mxCell id="Zmg1EnVHZOjhAk8_jbp6-11" style="edgeStyle=orthogonalEdgeStyle;rounded=0;orthogonalLoop=1;jettySize=auto;html=1;entryX=0;entryY=0.5;entryDx=0;entryDy=0;" parent="1" source="Zmg1EnVHZOjhAk8_jbp6-1" target="Zmg1EnVHZOjhAk8_jbp6-10" edge="1">
          <mxGeometry relative="1" as="geometry">
            <Array as="points">
              <mxPoint x="200" y="200" />
              <mxPoint x="200" y="260" />
            </Array>
          </mxGeometry>
        </mxCell>
        <mxCell id="Zmg1EnVHZOjhAk8_jbp6-12" value="CRM" style="rounded=1;whiteSpace=wrap;html=1;" parent="1" vertex="1">
          <mxGeometry x="360" y="230" width="90" height="60" as="geometry" />
        </mxCell>
        <mxCell id="Zmg1EnVHZOjhAk8_jbp6-14" style="edgeStyle=orthogonalEdgeStyle;rounded=0;orthogonalLoop=1;jettySize=auto;html=1;entryX=0.004;entryY=0.672;entryDx=0;entryDy=0;entryPerimeter=0;" parent="1" source="Zmg1EnVHZOjhAk8_jbp6-12" target="Zmg1EnVHZOjhAk8_jbp6-7" edge="1">
          <mxGeometry relative="1" as="geometry" />
        </mxCell>
        <mxCell id="Zmg1EnVHZOjhAk8_jbp6-15" style="edgeStyle=orthogonalEdgeStyle;rounded=0;orthogonalLoop=1;jettySize=auto;html=1;entryX=0;entryY=0.222;entryDx=0;entryDy=0;entryPerimeter=0;" parent="1" source="Zmg1EnVHZOjhAk8_jbp6-6" target="Zmg1EnVHZOjhAk8_jbp6-7" edge="1">
          <mxGeometry relative="1" as="geometry">
            <Array as="points">
              <mxPoint x="480" y="140" />
              <mxPoint x="480" y="220" />
            </Array>
          </mxGeometry>
        </mxCell>
        <mxCell id="Zmg1EnVHZOjhAk8_jbp6-16" value="&lt;font style=&quot;font-size: 10px;&quot;&gt;создание депозита&lt;/font&gt;" style="text;html=1;align=center;verticalAlign=middle;whiteSpace=wrap;rounded=0;" parent="1" vertex="1">
          <mxGeometry x="349" y="110" width="130" height="30" as="geometry" />
        </mxCell>
        <mxCell id="Zmg1EnVHZOjhAk8_jbp6-17" value="&lt;br&gt;&lt;span style=&quot;color: rgb(64, 64, 64); font-family: DeepSeek-CJK-patch, Inter, system-ui, -apple-system, BlinkMacSystemFont, &amp;quot;Segoe UI&amp;quot;, Roboto, &amp;quot;Noto Sans&amp;quot;, Ubuntu, Cantarell, &amp;quot;Helvetica Neue&amp;quot;, Oxygen, &amp;quot;Open Sans&amp;quot;, sans-serif; font-style: normal; font-variant-ligatures: normal; font-variant-caps: normal; font-weight: 400; letter-spacing: normal; orphans: 2; text-align: left; text-indent: 0px; text-transform: none; widows: 2; word-spacing: 0px; -webkit-text-stroke-width: 0px; white-space: normal; text-decoration-thickness: initial; text-decoration-style: initial; text-decoration-color: initial; float: none; display: inline !important;&quot;&gt;&lt;font style=&quot;font-size: 10px;&quot;&gt;передача заявки&lt;/font&gt;&lt;/span&gt;&lt;div&gt;&lt;br/&gt;&lt;/div&gt;" style="text;html=1;align=center;verticalAlign=middle;whiteSpace=wrap;rounded=0;" parent="1" vertex="1">
          <mxGeometry x="460" y="260" width="60" height="30" as="geometry" />
        </mxCell>
        <mxCell id="Zmg1EnVHZOjhAk8_jbp6-18" value="Бэк-офис" style="rounded=1;whiteSpace=wrap;html=1;" parent="1" vertex="1">
          <mxGeometry x="580" y="400" width="90" height="60" as="geometry" />
        </mxCell>
        <mxCell id="Zmg1EnVHZOjhAk8_jbp6-19" style="edgeStyle=orthogonalEdgeStyle;rounded=0;orthogonalLoop=1;jettySize=auto;html=1;entryX=0.558;entryY=0.978;entryDx=0;entryDy=0;entryPerimeter=0;startArrow=block;startFill=1;" parent="1" source="Zmg1EnVHZOjhAk8_jbp6-18" target="Zmg1EnVHZOjhAk8_jbp6-7" edge="1">
          <mxGeometry relative="1" as="geometry" />
        </mxCell>
        <mxCell id="Zmg1EnVHZOjhAk8_jbp6-20" value="&lt;div&gt;&lt;font style=&quot;font-size: 10px;&quot;&gt;расчет ставок&lt;/font&gt;&lt;/div&gt;" style="text;html=1;align=center;verticalAlign=middle;whiteSpace=wrap;rounded=0;" parent="1" vertex="1">
          <mxGeometry x="620" y="330" width="60" height="30" as="geometry" />
        </mxCell>
        <mxCell id="Zmg1EnVHZOjhAk8_jbp6-23" style="edgeStyle=orthogonalEdgeStyle;rounded=0;orthogonalLoop=1;jettySize=auto;html=1;" parent="1" source="Zmg1EnVHZOjhAk8_jbp6-21" edge="1">
          <mxGeometry relative="1" as="geometry">
            <mxPoint x="75" y="250" as="targetPoint" />
            <Array as="points">
              <mxPoint x="75" y="400" />
            </Array>
          </mxGeometry>
        </mxCell>
        <mxCell id="Zmg1EnVHZOjhAk8_jbp6-21" value="СМС-шлюз" style="rounded=1;whiteSpace=wrap;html=1;" parent="1" vertex="1">
          <mxGeometry x="259" y="370" width="90" height="60" as="geometry" />
        </mxCell>
        <mxCell id="Zmg1EnVHZOjhAk8_jbp6-24" value="&lt;font style=&quot;font-size: 10px;&quot;&gt;уведомления&lt;/font&gt;" style="text;html=1;align=center;verticalAlign=middle;whiteSpace=wrap;rounded=0;" parent="1" vertex="1">
          <mxGeometry x="170" y="370" width="70" height="30" as="geometry" />
        </mxCell>
        <mxCell id="Zmg1EnVHZOjhAk8_jbp6-26" value="Сайт (вне интеграций)" style="ellipse;shape=cloud;whiteSpace=wrap;html=1;" parent="1" vertex="1">
          <mxGeometry x="215" y="-70" width="120" height="80" as="geometry" />
        </mxCell>
        <mxCell id="Zmg1EnVHZOjhAk8_jbp6-27" style="edgeStyle=orthogonalEdgeStyle;rounded=0;orthogonalLoop=1;jettySize=auto;html=1;entryX=0.07;entryY=0.4;entryDx=0;entryDy=0;entryPerimeter=0;" parent="1" source="Zmg1EnVHZOjhAk8_jbp6-1" target="Zmg1EnVHZOjhAk8_jbp6-26" edge="1">
          <mxGeometry relative="1" as="geometry">
            <Array as="points">
              <mxPoint x="75" y="-38" />
            </Array>
          </mxGeometry>
        </mxCell>
        <mxCell id="Zmg1EnVHZOjhAk8_jbp6-28" value="Интернет-банк" style="rounded=1;whiteSpace=wrap;html=1;" parent="1" vertex="1">
          <mxGeometry x="230" y="30" width="90" height="60" as="geometry" />
        </mxCell>
        <mxCell id="Zmg1EnVHZOjhAk8_jbp6-29" value="БД АБС" style="shape=cylinder3;whiteSpace=wrap;html=1;boundedLbl=1;backgroundOutline=1;size=15;" parent="1" vertex="1">
          <mxGeometry x="585" y="90" width="60" height="80" as="geometry" />
        </mxCell>
        <mxCell id="Zmg1EnVHZOjhAk8_jbp6-31" style="edgeStyle=orthogonalEdgeStyle;rounded=0;orthogonalLoop=1;jettySize=auto;html=1;entryX=0.5;entryY=1;entryDx=0;entryDy=0;entryPerimeter=0;" parent="1" source="Zmg1EnVHZOjhAk8_jbp6-7" target="Zmg1EnVHZOjhAk8_jbp6-29" edge="1">
          <mxGeometry relative="1" as="geometry" />
        </mxCell>
        <mxCell id="Zmg1EnVHZOjhAk8_jbp6-32" style="edgeStyle=orthogonalEdgeStyle;rounded=0;orthogonalLoop=1;jettySize=auto;html=1;entryX=0.5;entryY=0;entryDx=0;entryDy=0;entryPerimeter=0;" parent="1" source="Zmg1EnVHZOjhAk8_jbp6-28" target="Zmg1EnVHZOjhAk8_jbp6-29" edge="1">
          <mxGeometry relative="1" as="geometry" />
        </mxCell>
        <mxCell id="Zmg1EnVHZOjhAk8_jbp6-33" style="edgeStyle=orthogonalEdgeStyle;rounded=0;orthogonalLoop=1;jettySize=auto;html=1;entryX=-0.002;entryY=0.566;entryDx=0;entryDy=0;entryPerimeter=0;exitX=0.5;exitY=0;exitDx=0;exitDy=0;exitPerimeter=0;" parent="1" source="Zmg1EnVHZOjhAk8_jbp6-1" target="Zmg1EnVHZOjhAk8_jbp6-28" edge="1">
          <mxGeometry relative="1" as="geometry">
            <mxPoint x="90" y="190" as="sourcePoint" />
            <Array as="points">
              <mxPoint x="75" y="150" />
              <mxPoint x="90" y="150" />
              <mxPoint x="90" y="130" />
              <mxPoint x="160" y="130" />
              <mxPoint x="160" y="64" />
            </Array>
          </mxGeometry>
        </mxCell>
        <mxCell id="pPBl8woCDAV7xBgDQROz-5" style="edgeStyle=orthogonalEdgeStyle;rounded=0;orthogonalLoop=1;jettySize=auto;html=1;entryX=0.5;entryY=1;entryDx=0;entryDy=0;" edge="1" parent="1" source="pPBl8woCDAV7xBgDQROz-1" target="Zmg1EnVHZOjhAk8_jbp6-18">
          <mxGeometry relative="1" as="geometry" />
        </mxCell>
        <mxCell id="pPBl8woCDAV7xBgDQROz-1" value="сотрудник бэк-офиса" style="shape=umlActor;verticalLabelPosition=bottom;verticalAlign=top;html=1;outlineConnect=0;" vertex="1" parent="1">
          <mxGeometry x="610" y="525" width="30" height="60" as="geometry" />
        </mxCell>
        <mxCell id="pPBl8woCDAV7xBgDQROz-7" style="edgeStyle=orthogonalEdgeStyle;rounded=0;orthogonalLoop=1;jettySize=auto;html=1;entryX=0.5;entryY=1;entryDx=0;entryDy=0;startArrow=blockThin;startFill=1;" edge="1" parent="1" source="pPBl8woCDAV7xBgDQROz-6" target="Zmg1EnVHZOjhAk8_jbp6-6">
          <mxGeometry relative="1" as="geometry">
            <Array as="points">
              <mxPoint x="275" y="190" />
            </Array>
          </mxGeometry>
        </mxCell>
        <mxCell id="pPBl8woCDAV7xBgDQROz-12" style="edgeStyle=orthogonalEdgeStyle;rounded=0;orthogonalLoop=1;jettySize=auto;html=1;entryX=0.5;entryY=0;entryDx=0;entryDy=0;" edge="1" parent="1" source="pPBl8woCDAV7xBgDQROz-6" target="Zmg1EnVHZOjhAk8_jbp6-12">
          <mxGeometry relative="1" as="geometry" />
        </mxCell>
        <mxCell id="pPBl8woCDAV7xBgDQROz-6" value="сотрудник отделенеия" style="shape=umlActor;verticalLabelPosition=bottom;verticalAlign=top;html=1;outlineConnect=0;" vertex="1" parent="1">
          <mxGeometry x="397.5" y="160" width="15" height="30" as="geometry" />
        </mxCell>
      </root>
    </mxGraphModel>
  </diagram>
</mxfile>
